<svg version="1.1" xmlns="http://www.w3.org/2000/svg" style="display: block;" viewBox="633 499 793 1055">
<path transform="translate(0,0)" fill="rgb(217,233,251)" d="M 1385.71 539.009 L 1329.4 772.468 C 1321.71 805.227 1313.8 837.936 1305.69 870.593 C 1301.6 887.173 1297.9 904.843 1292.49 921.256 C 1286.73 938.736 1270.82 933.412 1258.23 928.475 C 1232.57 918.416 1206.37 902.809 1181.15 892.74 C 1166.37 917.409 1153.36 943.567 1138.36 968.108 C 1136.22 971.599 1133.08 974.636 1129.38 976.434 C 1124.56 975.941 1123.02 971.898 1122.89 967.438 C 1121.96 936.357 1117.64 902.77 1117.33 871.907 C 1122.62 863.956 1130.75 855.479 1136.85 847.726 C 1149.55 831.6 1162.14 815.404 1174.74 799.198 L 1263.05 685.019 C 1282.8 659.731 1303.07 634.901 1322.54 609.375 L 1320.35 608.364 C 1278.32 654.666 1233.49 699.892 1190.81 745.819 C 1168.47 770.112 1145.9 794.188 1123.1 818.044 C 1115.17 826.299 1100.67 842.182 1092.43 849.387 C 1078.49 848.137 1064.33 845.511 1050.43 843.459 C 1015.53 838.283 980.152 833.937 945.604 826.997 C 940.46 825.963 934.343 820.161 936.749 815.409 C 941.448 806.129 962.838 795.818 971.834 790.402 L 1021.67 760.036 C 1078.94 724.257 1136.57 689.057 1194.55 654.442 L 1321.7 577.497 C 1339.64 566.633 1367.77 548.197 1385.71 539.009 z"/>
<path transform="translate(0,0)" fill="rgb(217,233,251)" d="M 1325.34 602.588 L 1326.31 604.406 C 1325.06 606.142 1323.86 607.695 1322.54 609.375 L 1320.35 608.364 C 1322 606.368 1323.69 604.609 1325.34 602.588 z"/>
<path transform="translate(0,0)" fill="rgb(217,233,251)" d="M 1325.34 602.588 C 1326.44 600.38 1327.32 599.55 1329.36 598.117 L 1330.77 597.086 C 1329.25 600.389 1328.71 601.678 1326.31 604.406 L 1325.34 602.588 z"/>
<path transform="translate(0,0)" fill="rgb(217,233,251)" d="M 717.42 1175.91 C 733.715 1179.84 726.425 1196.07 724.154 1207.51 C 720.769 1224.58 721.422 1242.13 720.537 1259.25 C 720.39 1262.09 714.241 1264.55 712.057 1265.51 C 698.897 1262.43 700.543 1253.75 700.695 1242.1 C 700.954 1222.3 703.221 1201.49 708.918 1182.47 C 709.983 1178.92 714.403 1177.37 717.42 1175.91 z"/>
<path transform="translate(0,0)" fill="rgb(217,233,251)" d="M 718.796 802.109 C 726.933 803.016 733.417 805.304 730.951 816.004 C 728.471 821.61 725.656 829.818 722.728 834.986 C 715.09 848.468 714.03 873.091 701.025 881.288 C 687.318 878.813 686.768 871.79 690.771 859.806 C 695.564 845.455 704.767 808.833 718.796 802.109 z"/>
<path transform="translate(0,0)" fill="rgb(217,233,251)" d="M 1219.35 1427.16 C 1225.66 1428.14 1233.41 1433.93 1230.59 1438.37 C 1221.1 1453.34 1180.01 1473.51 1166.38 1481.35 L 1165.58 1481.81 C 1150.39 1481.48 1151.11 1465.69 1160 1461.82 C 1174.83 1455.37 1206.58 1430.29 1219.35 1427.16 z"/>
<path transform="translate(0,0)" fill="rgb(217,233,251)" d="M 684.691 921.872 C 692.318 922.12 699.073 923.567 698.637 933.496 C 697.686 955.162 699.091 976.461 700.781 997.957 C 701.032 1001.16 696.587 1004.82 694.477 1006.48 C 677.505 1008 677.807 992.527 678.25 979 C 678.725 964.468 672.6 929.498 684.691 921.872 z"/>
<path transform="translate(0,0)" fill="rgb(217,233,251)" d="M 904.804 632.024 C 909.284 632.251 915.282 634.318 916.875 638.583 C 922.527 653.715 896.043 658.692 887.006 663.51 C 875.787 669.491 866.672 675.523 856.495 680.667 C 851.233 681.485 846.185 678.35 844.46 673.36 C 843.526 670.602 843.715 667.588 844.985 664.968 C 849.511 655.692 893.901 635.934 904.804 632.024 z"/>
<path transform="translate(0,0)" fill="rgb(217,233,251)" d="M 1301.91 1333.98 C 1305.46 1333.72 1309.21 1333.21 1312.37 1335.28 C 1314.35 1336.58 1315.68 1338.65 1316.05 1340.99 C 1317.79 1352.72 1294.76 1376.47 1287.91 1386.45 C 1285.83 1389.48 1275.51 1401.88 1272.96 1403.76 L 1271.58 1404.83 C 1263.87 1405.5 1256.9 1403.5 1257.69 1395 C 1258.4 1387.44 1275.38 1369.63 1280.65 1362.68 C 1286.97 1354.31 1295.24 1339.96 1301.91 1333.98 z"/>
<path transform="translate(0,0)" fill="rgb(217,233,251)" d="M 1349 1218.9 C 1371.47 1217.71 1361.09 1240.73 1357.34 1254.58 L 1356.84 1256.48 C 1353.52 1268.77 1347.82 1291.02 1338.32 1299.72 C 1317.51 1302.68 1325.89 1282.56 1330.7 1271.42 C 1337.07 1256.7 1338.19 1229.83 1349 1218.9 z"/>
<path transform="translate(0,0)" fill="rgb(217,233,251)" d="M 720.455 1308 L 721.468 1307.93 C 722.894 1307.82 729.737 1307.22 731.036 1309.2 C 741.611 1325.45 748.746 1344.58 759.251 1361.21 C 766.059 1371.99 769.096 1375.68 760.311 1385.5 C 748.338 1387.39 744.403 1377.36 739.785 1367.35 C 733.8 1354.38 707.474 1320.98 719.239 1309.24 L 720.455 1308 z"/>
<path transform="translate(0,0)" fill="rgb(217,233,251)" d="M 1357.01 1090.8 C 1371.42 1091.19 1372.55 1101.14 1371.99 1113.75 C 1371.28 1129.85 1379.54 1164.48 1365.38 1174.17 C 1359.16 1174.03 1352.31 1173.22 1352.47 1164.46 C 1352.89 1142.86 1351.42 1121.49 1350.04 1100 C 1349.82 1096.6 1354.77 1092.68 1357.01 1090.8 z"/>
<path transform="translate(0,0)" fill="rgb(217,233,251)" d="M 795.279 699.736 C 805.45 701.05 810.539 711.495 806.703 715.029 C 797.545 723.464 766.888 763.345 758.633 767.488 C 751.956 766.572 742.216 760.097 746.5 754.107 C 757.297 739.011 779.79 709.106 795.279 699.736 z"/>
<path transform="translate(0,0)" fill="rgb(217,233,251)" d="M 796.491 1415.13 C 802.616 1414.71 802.138 1413.45 806.884 1417.19 C 815.252 1423.79 822.712 1430.72 831.704 1436.51 C 840.729 1443.01 851.966 1447.61 860.695 1454.34 C 868.722 1460.52 863.52 1467.19 858.59 1472.25 C 841.744 1472.32 808.794 1443.55 795.028 1432.47 C 788.388 1427.13 790.991 1420.05 796.491 1415.13 z"/>
<path transform="translate(0,0)" fill="rgb(217,233,251)" d="M 1013.86 605.394 C 1035.4 602.183 1045.56 611.813 1029.98 625.993 C 1030.07 625.92 987.566 631.628 983.772 631.995 C 976.161 633.68 964.135 637.54 960.387 627.389 C 953.556 608.886 1002.31 606.804 1013.86 605.394 z"/>
<path transform="translate(0,0)" fill="rgb(217,233,251)" d="M 910.877 1476.06 C 916.03 1476.69 919.049 1477.5 923.956 1479.17 C 939.438 1484.43 955.283 1488.8 971.494 1491.12 C 978.242 1492.09 983.016 1495.79 981.36 1503.03 C 980.1 1508.53 978.497 1508.97 974.129 1511.84 C 962.521 1512.28 912.176 1501.57 903.478 1490.57 C 899.24 1485.21 905.064 1479.05 910.877 1476.06 z"/>
<path transform="translate(0,0)" fill="rgb(217,233,251)" d="M 1320.09 973.898 C 1324.36 974.212 1329.17 974.715 1331.43 979.167 C 1340.98 998.022 1354.29 1019.14 1357.99 1039.95 C 1358.6 1043.37 1353.21 1048.08 1350.85 1049.8 C 1346.95 1049.1 1341.41 1048.32 1339.27 1043.62 C 1330.98 1025.15 1322.64 1006.96 1313.28 988.967 C 1309.61 981.911 1314.74 977.106 1320.09 973.898 z"/>
<path transform="translate(0,0)" fill="rgb(217,233,251)" d="M 843.692 999.047 C 847.779 999.036 853.048 999.409 855.003 1003.04 C 861.637 1015.98 848.543 1021.16 839.089 1025.53 C 825.209 1031.95 814.093 1041.87 801.613 1049.78 C 795.217 1049.85 791.599 1049.14 788.679 1043.01 C 787.926 1041.43 787.342 1037.42 788.329 1036.02 C 799.354 1020.48 827.221 1006.91 843.692 999.047 z"/>
<path transform="translate(0,0)" fill="rgb(217,233,251)" d="M 1099.33 1484.35 C 1103.22 1484.72 1106.9 1487.76 1107.96 1491.5 C 1108.74 1494.31 1108.28 1497.31 1106.71 1499.76 C 1101 1508.66 1051.84 1512.26 1039.63 1514.04 C 1031.49 1511.1 1025.97 1506.14 1031.73 1496.8 C 1035.89 1490.96 1046.56 1492.21 1053 1491.62 C 1068.55 1490.18 1083.99 1486.38 1099.33 1484.35 z"/>
<path transform="translate(0,0)" fill="rgb(217,233,251)" d="M 917.142 987.179 C 933.752 988.599 946.355 994.665 961.469 1000.1 C 976.263 1005.42 989.323 1018.51 968.72 1027.46 C 961.475 1025.94 956.792 1021.94 950 1018.76 C 943.355 1015.73 936.476 1013.24 929.431 1011.32 C 926.602 1010.56 913.763 1008.24 912.714 1007.51 C 901.093 999.486 906.163 990.18 917.142 987.179 z"/>
<path transform="translate(0,0)" fill="rgb(217,233,251)" d="M 1088.59 605.128 C 1097.37 604.893 1099.36 605.517 1108.01 606.818 C 1116.21 608.035 1124.37 609.498 1132.48 611.203 C 1138 612.384 1149.02 613.704 1152.83 618.136 C 1157.13 623.134 1155.24 630.796 1149.89 634.48 L 1148.29 635.638 C 1141.17 635.751 1138.95 634.94 1131.98 633.293 L 1127.48 632.219 C 1124.17 631.458 1120.84 630.693 1117.49 630.106 C 1111.02 628.971 1104.51 627.989 1097.99 627.159 C 1082.83 625.223 1073.98 613.699 1088.59 605.128 z"/>
<path transform="translate(0,0)" fill="rgb(217,233,251)" d="M 792.668 1148.87 C 796.199 1149.03 802.287 1149.53 805.81 1152.33 C 817.303 1161.46 845.197 1164.59 855.246 1171.34 C 861.356 1175.44 857.317 1183.87 851.432 1188.85 C 836.885 1189.97 803.259 1176.61 791.075 1167.47 C 784.336 1162.42 787.416 1154.23 792.668 1148.87 z"/>
<path transform="translate(0,0)" fill="rgb(217,233,251)" d="M 1009.06 1058.97 C 1021.83 1059.06 1022.16 1065.74 1024.86 1078.01 C 1027.93 1091.98 1028.15 1123.32 1016.26 1132.93 C 1004.79 1132.74 1000.39 1128.71 1002.82 1117.5 C 1006.65 1099.89 1005.99 1085.07 1001.18 1068.11 C 1000.73 1066.5 1004.45 1061.88 1006.37 1060.66 L 1009.06 1058.97 z"/>
<path transform="translate(0,0)" fill="rgb(217,233,251)" d="M 957.649 1164.1 C 965.318 1163.41 972.971 1163.15 973.469 1172.44 C 973.58 1174.51 973.427 1178.99 971.642 1180.36 C 959.361 1189.77 935.06 1194.85 920.245 1196.55 C 908.73 1198.75 899.936 1189.37 907.474 1178.47 C 910.074 1174.72 929.674 1173.47 935.008 1172.09 C 942.55 1170.14 949.99 1166.61 957.649 1164.1 z"/>
<path transform="translate(0,0)" fill="rgb(217,233,251)" d="M 748.976 1078.81 C 771.032 1077.16 763.202 1092.88 756.749 1106 C 751.799 1116.06 750.715 1125.88 743.226 1134.51 C 720.73 1137.26 730.562 1115.22 736.163 1104.35 C 740.662 1095.61 743.073 1087.19 748.976 1078.81 z"/>
<path transform="translate(0,0)" fill="rgb(217,233,251)" d="M 705.755 1046.85 C 720.141 1047.44 717.448 1052.75 724.503 1064.45 C 728.539 1071.15 732.543 1076.84 736.083 1084.03 C 733.56 1091.68 732.437 1094.9 727.974 1101.52 C 722.983 1102.23 698.962 1065.12 699.544 1057.52 C 699.931 1052.48 702.675 1049.89 705.755 1046.85 z"/>
</svg>